PathFileType	4	(X/Y/Z)	C:\Users\Basilio\Documents\Thesis Gigler\squatting_fais\c3dfiles\047\SJ_pre2\markers_experimental.trc
DataRate	CameraRate	NumFrames	NumMarkers	Units	OrigDataRate	OrigDataStartFrame	OrigNumFrames
200.000000	200.000000	4	60	mm	200.000000	409	1636
Frame#	Time	FHD			LBHD			RBHD			C7			T10			CLAV			LSHO			LUUPA			LMUPA			LDUPA			LLEP			LMEP			LRAD			LUL			LRFIN			RSHO			RUPA1			RMUPA			RDUPA			RLEP			RMEP			RRAD			RUL			RUFIN			RASI			USACR			LSACR			RSACR			LTHI1			LTHI2			LTHI3			LTHI4			LLFC			LMFC			LTIB1			LTIB2			LTIB3			LTIB4			LLMAL			LMMAL			LMT1			LMT2			LMT5			RTHI			RTHI2			RTHI3			RTHI4			RLFC			RMFC			RTIB1			RTIB2			RTIB3			RTIB4			RLMAL			RMMAL			RHEE			RMT1			RMT2			RMT5			LASI			
		X1	Y1	Z1	X2	Y2	Z2	X3	Y3	Z3	X4	Y4	Z4	X5	Y5	Z5	X6	Y6	Z6	X7	Y7	Z7	X8	Y8	Z8	X9	Y9	Z9	X10	Y10	Z10	X11	Y11	Z11	X12	Y12	Z12	X13	Y13	Z13	X14	Y14	Z14	X15	Y15	Z15	X16	Y16	Z16	X17	Y17	Z17	X18	Y18	Z18	X19	Y19	Z19	X20	Y20	Z20	X21	Y21	Z21	X22	Y22	Z22	X23	Y23	Z23	X24	Y24	Z24	X25	Y25	Z25	X26	Y26	Z26	X27	Y27	Z27	X28	Y28	Z28	X29	Y29	Z29	X30	Y30	Z30	X31	Y31	Z31	X32	Y32	Z32	X33	Y33	Z33	X34	Y34	Z34	X35	Y35	Z35	X36	Y36	Z36	X37	Y37	Z37	X38	Y38	Z38	X39	Y39	Z39	X40	Y40	Z40	X41	Y41	Z41	X42	Y42	Z42	X43	Y43	Z43	X44	Y44	Z44	X45	Y45	Z45	X46	Y46	Z46	X47	Y47	Z47	X48	Y48	Z48	X49	Y49	Z49	X50	Y50	Z50	X51	Y51	Z51	X52	Y52	Z52	X53	Y53	Z53	X54	Y54	Z54	X55	Y55	Z55	X56	Y56	Z56	X57	Y57	Z57	X58	Y58	Z58	X59	Y59	Z59	X60	Y60	Z60	

410	2.045	-34.58450317382813	1620.1826171875	-890.6348266601565	-196.2459259033204	1658.170288085938	-967.4116821289065	-213.7620239257813	1667.691528320313	-820.2889404296877	-315.2203369140626	1497.67578125	-889.257995605469	-383.1621093750001	1174.68017578125	-877.4626464843752	-180.5122985839844	1404.869384765625	-896.041442871094	-245.2906341552735	1444.203979492188	-1071.146118164063	-371.2326965332032	1337.245849609375	-1185.782958984375	-335.8426818847657	1307.973510742188	-1208.499877929688	-388.5519104003907	1283.284912109375	-1226.846313476563	-384.7347412109376	1218.2685546875	-1261.274291992188	-439.1195068359376	1193.295043945313	-1182.66552734375	-279.3226928710938	1062.995483398438	-1090.492065429688	-246.2396545410157	1026.496704101563	-1151.773803710938	-215.7310028076172	1050.958251953125	-1057.029663085938	-236.8712005615235	1458.252197265625	-726.3706054687501	-350.1100463867188	1352.895874023438	-584.7175292968751	-316.0320129394532	1320.952514648438	-567.7673339843751	-365.1993713378907	1299.63330078125	-540.7566528320314	-357.7845153808594	1231.419311523438	-508.317352294922	-421.9126892089845	1203.91552734375	-568.8919677734376	-257.1389465332032	1072.70166015625	-682.0638427734376	-227.5083007812501	1038.826293945313	-622.8012695312501	-197.5530395507813	1055.038330078125	-713.5812377929689	-186.2146911621094	951.7844848632815	-773.144470214844	-377.7106628417969	1031.483520507813	-882.122741699219	-384.1968078613282	1000.619934082031	-910.5615844726565	-377.6777038574219	999.6614379882815	-853.0061035156252	-312.4429321289063	811.2186279296877	-1077.472900390625	-284.6419067382813	734.0081176757814	-1097.304321289063	-236.3215484619141	732.9988403320314	-1091.530151367188	-315.7562255859376	681.5003051757814	-1097.526611328125	-347.3919982910157	507.5570678710939	-1086.60595703125	-288.9110107421876	473.0889282226564	-983.151794433594	-299.6439514160157	311.3280029296876	-1047.776733398438	-329.9527893066407	282.1344909667969	-1125.829223632813	-300.6705017089844	272.0554504394532	-1090.919189453125	-306.2113342285157	189.1306610107422	-1076.651123046875	-364.2677307128907	96.91844177246097	-1132.484985351563	-325.5912170410157	99.46387481689456	-1050.787719726563	-201.761459350586	63.80904769897462	-1105.642944335938	-211.2090606689454	63.57308578491212	-1148.461303710938	-257.9437255859376	43.09213638305665	-1187.872192382813	-306.9005126953126	786.0872802734377	-680.5751953125001	-274.1119384765626	729.0438842773439	-668.6804809570314	-241.3118286132813	728.3223266601564	-671.5718383789064	-305.7452697753907	650.8791503906251	-674.3682250976564	-315.9635620117188	499.9421691894532	-682.6295776367189	-268.6371459960938	481.7149658203126	-793.968688964844	-288.9403991699219	369.6360168457032	-683.7225952148439	-360.9756164550782	293.5898742675782	-654.0539550781251	-314.7431030273438	291.0310058593751	-659.6045532226564	-300.8377685546876	239.9226989746094	-688.1536254882814	-373.3843994140626	92.18206787109376	-665.6312866210939	-328.4093017578126	103.6429443359375	-747.1217651367189	-416.8493652343751	51.81794357299806	-724.9304809570314	-205.2007141113282	56.76322174072267	-696.5288696289064	-213.944808959961	58.04613494873048	-650.7507324218751	-270.6855468750001	29.90611267089844	-604.2195434570314	-199.9779968261719	946.9404296875002	-1003.021850585938	
411	2.05	-34.73429489135743	1620.843139648438	-890.8420410156252	-196.5893707275391	1658.284790039063	-967.4090576171877	-213.8970947265626	1667.997802734375	-820.3905029296877	-315.2391967773438	1497.637084960938	-889.2273559570315	-382.9481506347657	1174.63330078125	-877.526062011719	-180.3620758056641	1405.044311523438	-896.076843261719	-245.1485900878907	1444.268798828125	-1071.1259765625	-371.0307006835938	1337.277587890625	-1185.859252929688	-335.6865539550782	1307.966430664063	-1208.463500976563	-388.3156127929689	1283.276489257813	-1226.87744140625	-384.4268493652345	1218.273193359375	-1261.274658203125	-438.8303527832032	1193.223510742188	-1182.73681640625	-279.0711975097657	1062.98583984375	-1090.548095703125	-245.9546203613282	1026.540649414063	-1151.703857421875	-215.4834899902344	1051.024169921875	-1057.011108398438	-236.7766418457032	1458.316772460938	-726.2662963867189	-350.0511169433594	1352.81640625	-584.6749267578126	-315.9685058593751	1320.842041015625	-567.5641479492189	-365.0510559082032	1299.577514648438	-540.7822875976564	-357.7252502441407	1231.342529296875	-508.1360473632814	-421.7584838867189	1203.836791992188	-568.9147949218751	-256.8544006347657	1072.728271484375	-682.1549072265626	-227.3830566406251	1038.7763671875	-622.8240356445314	-197.4648895263672	1054.997924804688	-713.4691772460939	-186.3081665039063	951.5332031250002	-772.8702392578127	-377.5400085449219	1031.513671875	-882.238708496094	-384.0361328125001	1000.631652832031	-910.630310058594	-377.5544128417969	999.641540527344	-853.072204589844	-312.2039794921876	811.2227172851565	-1077.522338867188	-284.3776550292969	734.0025634765626	-1097.350341796875	-235.6573181152344	732.7551269531251	-1091.527587890625	-315.4541931152344	681.4508666992189	-1097.612548828125	-347.0869140625001	507.5028076171876	-1086.709106445313	-288.8082580566407	472.988983154297	-983.200378417969	-299.5997619628907	311.3097839355469	-1047.830200195313	-329.8891296386719	282.1178894042969	-1125.841186523438	-300.4425354003907	272.1270141601563	-1091.015014648438	-306.0455017089844	188.8530731201172	-1076.725219726563	-364.2656555175782	97.02005004882815	-1132.469482421875	-325.5971069335938	99.44714355468753	-1050.798828125	-201.7325897216797	63.78747177124025	-1105.613891601563	-211.2372436523438	63.62168502807619	-1148.494018554688	-257.8968200683594	43.11291885375977	-1187.864013671875	-306.8815612792969	786.111267089844	-680.5556640625001	-274.0736083984376	729.0439453125001	-668.5683593750001	-241.2655944824219	728.3335571289064	-671.6034545898439	-305.6526794433594	650.8466186523439	-674.4450683593751	-315.9226989746094	499.9446105957032	-682.5980224609376	-268.4890136718751	481.7262573242189	-793.8518676757815	-288.8423767089844	369.6147460937501	-683.7528076171876	-360.9025573730469	293.6024169921876	-654.0184936523439	-314.6413879394532	291.0061950683594	-659.7298583984376	-300.8338012695313	239.8999023437501	-688.1682739257814	-373.3636169433594	92.20433044433595	-665.5363159179689	-328.3106079101563	103.6737213134766	-747.2284545898439	-416.877655029297	51.96437454223634	-724.9100952148439	-205.1884307861329	56.73881149291994	-696.5171508789064	-213.9545288085938	58.06049728393556	-650.7321777343751	-270.6912841796876	29.93328094482423	-604.2305297851564	-199.8020782470704	946.931091308594	-1003.023132324219	
412	2.055	-35.1146354675293	1621.251586914063	-890.4537353515627	-197.0086364746094	1658.405151367188	-967.3399047851565	-214.590560913086	1668.11376953125	-820.2055664062502	-315.2442321777344	1497.550048828125	-889.1538085937502	-382.7566528320313	1174.593627929688	-877.5617675781252	-180.3710632324219	1405.35302734375	-895.9849853515627	-245.0515747070313	1444.320922851563	-1071.08544921875	-370.7870483398438	1337.2685546875	-1185.880981445313	-335.2654418945313	1308.078369140625	-1208.6728515625	-388.0430603027345	1283.289428710938	-1226.925048828125	-384.0546264648439	1218.271240234375	-1261.363891601563	-438.6673889160157	1193.197998046875	-1182.813232421875	-278.7292480468751	1062.928588867188	-1090.590209960938	-245.5833129882813	1026.602905273438	-1151.611328125	-215.0957183837891	1051.115478515625	-1057.096313476563	-236.6370544433594	1458.358520507813	-726.2153320312501	-350.0201416015626	1352.808349609375	-584.6528320312501	-315.7932128906251	1320.81396484375	-567.5937500000001	-364.8887023925782	1299.439453125	-540.7504272460939	-357.5501403808594	1231.26416015625	-508.1795349121095	-421.6439819335939	1203.7490234375	-568.9323730468751	-256.6520996093751	1072.724853515625	-682.1744384765626	-227.2670898437501	1038.763916015625	-622.7680053710939	-197.2167510986329	1055.100952148438	-713.4562377929689	-186.2083587646485	951.5671386718752	-772.9312133789065	-377.4004211425782	1031.470581054688	-882.3272094726565	-383.8801879882813	1000.703552246094	-910.6580810546877	-377.4427185058594	999.640563964844	-853.1590576171877	-311.9725341796876	811.1820068359377	-1077.632690429688	-284.0939636230469	733.9566040039064	-1097.396118164063	-235.4702911376954	732.7171630859376	-1091.637573242188	-315.3091430664063	681.4702148437501	-1097.630493164063	-346.8976745605469	507.4849853515626	-1086.815185546875	-288.7439270019532	472.9943237304689	-983.189636230469	-299.6202087402344	311.2849426269532	-1047.890380859375	-329.7362365722657	282.1279296875001	-1125.88525390625	-300.2615356445313	272.1608276367188	-1091.063720703125	-305.8418579101563	188.8595886230469	-1076.880737304688	-363.8604736328126	96.63826751708987	-1132.693725585938	-325.5759582519532	99.46058654785159	-1050.788208007813	-201.7401580810547	63.76805877685548	-1105.638305664063	-211.0216979980469	63.74342346191408	-1148.5498046875	-257.9100036621094	43.13624954223634	-1187.858154296875	-306.7700805664063	786.0862426757815	-680.5640258789064	-274.0792846679688	729.0687255859376	-668.5712280273439	-241.2348175048829	728.3258666992189	-671.6402587890626	-305.6005859375001	650.7952270507814	-674.4351806640626	-315.8389892578126	499.9727783203126	-682.5998535156251	-268.4270324707032	481.7220458984376	-793.9230957031252	-288.8036193847657	369.6130676269532	-683.6856689453126	-360.8504943847657	293.5902709960938	-653.9725952148439	-314.5872497558594	291.0440063476563	-659.6705932617189	-300.7976379394532	239.9243927001954	-688.1735229492189	-373.3267822265626	92.20738983154298	-665.6000366210939	-328.4902648925782	103.5889053344727	-747.0471191406251	-416.7694091796876	52.22829818725587	-724.8800659179689	-205.1837615966797	56.73747634887697	-696.4660644531251	-213.9469146728516	58.04024124145509	-650.6959838867189	-270.7075805664063	29.95888137817384	-604.2590332031251	-199.7241973876954	946.8132934570315	-1002.946105957031	
413	2.06	-35.14684677124024	1621.955932617188	-890.7222900390627	-197.3709564208985	1658.544311523438	-967.3687744140627	-214.7635498046876	1668.199951171875	-820.2032470703127	-315.1929626464844	1497.499633789063	-889.1113891601565	-382.5205688476563	1174.554321289063	-877.6354980468752	-180.3524322509766	1405.373657226563	-895.8269042968752	-245.0647125244141	1444.4140625	-1071.017456054688	-370.5814819335938	1337.3037109375	-1185.922729492188	-335.0199890136719	1308.127197265625	-1208.64208984375	-387.8309631347657	1283.343383789063	-1226.92041015625	-383.8588256835938	1218.264038085938	-1261.398559570313	-438.4234008789064	1193.233764648438	-1182.869384765625	-278.4190673828126	1063.12109375	-1090.517578125	-245.2415161132813	1026.545166015625	-1151.562744140625	-215.0005798339844	1051.108154296875	-1056.974365234375	-236.4974517822266	1458.408325195313	-726.2041015625001	-349.8917236328126	1352.755126953125	-584.6696166992189	-315.7021179199219	1320.781616210938	-567.5364990234376	-364.7024841308594	1299.3876953125	-540.7882080078126	-357.3485717773438	1231.20751953125	-508.2249450683595	-421.5388183593751	1203.672241210938	-568.9428710937501	-256.5027770996094	1072.6982421875	-682.2297363281251	-227.1285705566407	1038.752075195313	-622.7291259765626	-196.8845520019532	1055.185546875	-713.5212402343751	-186.0176696777344	951.6934204101565	-773.406921386719	-377.2074584960938	1031.478881835938	-882.3957519531252	-383.6806945800782	1000.705627441406	-910.7604980468752	-377.3329467773438	999.6204833984377	-853.1841430664065	-311.7775268554688	811.1977539062502	-1077.692504882813	-283.9118347167969	733.8683471679689	-1097.413818359375	-235.1528320312501	732.7110595703126	-1091.733520507813	-315.0889587402344	681.4720458984376	-1097.643676757813	-346.7317199707032	507.4454345703126	-1086.882202148438	-288.6580810546876	472.9612426757814	-983.3054809570315	-299.6406250000001	311.2571411132813	-1047.915161132813	-329.3918457031251	282.1626586914063	-1126.09814453125	-300.1099243164063	272.2001342773438	-1091.036376953125	-305.8054809570313	188.8215942382813	-1076.959716796875	-363.9010009765626	96.60950469970706	-1132.675415039063	-325.6111450195313	99.41239929199222	-1050.787231445313	-201.7415161132813	63.77154922485353	-1105.63232421875	-211.1469879150391	63.60471343994142	-1148.4560546875	-257.9131164550782	43.09589767456055	-1187.868408203125	-306.7142028808594	786.0869140625002	-680.5776367187501	-273.8778076171876	729.2985839843751	-668.0534667968751	-240.9952392578126	728.7199096679689	-671.4346923828126	-305.5347290039063	650.8605346679689	-674.4600219726564	-315.6861877441407	499.9925231933595	-682.6812744140626	-268.4091796875001	481.6355285644532	-793.8972167968752	-288.7743530273438	369.6254272460938	-683.6595458984376	-360.8480529785157	293.5813903808594	-654.0060424804689	-314.5182189941407	291.0236206054688	-659.7084350585939	-300.7438964843751	239.9301300048829	-688.1472778320314	-373.3304748535157	92.21306610107423	-665.6089477539064	-328.4848632812501	103.6123962402344	-747.0710449218751	-416.6920471191407	52.23392486572267	-724.9645385742189	-205.2032623291016	56.71617889404298	-696.4120483398439	-213.9318237304688	58.03576278686525	-650.7407836914064	-270.6865844726563	29.88297080993653	-604.2739868164064	-199.3662719726563	946.8579711914065	-1002.944213867188	
